<svg xmlns="http://www.w3.org/2000/svg" width="20" height="20" fill="none" xmlns:v="https://vecta.io/nano"><path d="M13.333 7.5c0 1.841-1.492 3.333-3.333 3.333S6.667 9.341 6.667 7.5 8.159 4.167 10 4.167s3.333 1.492 3.333 3.333z" fill="url(#A)"/><path fill-rule="evenodd" d="M20 10c0 5.523-4.477 10-10 10S0 15.523 0 10 4.477 0 10 0s10 4.477 10 10zM2.775 14.937C3.656 13.531 6.557 12.5 10 12.5s6.344 1.031 7.226 2.437A8.71 8.71 0 0 0 18.75 10a8.75 8.75 0 1 0-17.5 0 8.71 8.71 0 0 0 1.525 4.937z" fill="url(#A)"/><defs><radialGradient id="A" cx="0" cy="0" r="1" gradientUnits="userSpaceOnUse" gradientTransform="translate(10 17.0833) rotate(-122.957) scale(22.5943 31.3277)"><stop stop-color="#e6fffc"/><stop offset="1" stop-color="#07beb8"/></radialGradient></defs></svg>