<svg 
    width="24" 
    height="24" 
    fill="none" xmlns="http://www.w3.org/2000/svg"
    >
    <path 
        d="m11.97 23.94-6.927-1.923L3.5 4.705h16.96l-1.545 17.309-6.945 1.925z" 
        fill="#264DE4"
    />
    <path 
        d="m17.592 20.912 1.32-14.792H11.98v16.348l5.612-1.556z" 
        fill="#2965F1"
    />
    <path 
        d="m7.038 12.54.19 2.124h4.752v-2.123H7.038zM6.656 8.243l.193 2.124h5.131V8.243H6.656zM11.98 18.055l-.01.003-2.364-.639-.151-1.693H7.324l.297 3.334 4.35 1.207.01-.003v-2.209z" 
        fill="#EBEBEB"
    />
    <path 
        d="M7.491 0h2.572v1.075H8.567v1.076h1.496v1.075H7.491V0zM10.577 0h2.572v.935h-1.496v.187h1.496v2.151h-2.572v-.982h1.497v-.187h-1.497V0zM13.663 0h2.572v.935h-1.496v.187h1.496v2.151h-2.572v-.982h1.496v-.187h-1.496V0z" 
        fill="#000"
    />
    <path 
        d="m16.908 12.54.383-4.297h-5.318v2.124h2.992l-.194 2.174h-2.798v2.123h2.614l-.246 2.754-2.368.639v2.209l4.353-1.206.53-5.949.052-.57z" 
        fill="#fff"
    />
</svg>