<svg xmlns="http://www.w3.org/2000/svg" width="20" height="20" fill="none" xmlns:v="https://vecta.io/nano"><path fill-rule="evenodd" d="M10.839.434a1.49 1.49 0 0 0-1.678 0L.279 6.49A.64.64 0 0 0 0 7.018v12.34a.64.64 0 0 0 .638.638h18.723a.64.64 0 0 0 .638-.638V7.018a.64.64 0 0 0-.279-.527L10.839.434zM9.88 1.489c.072-.049.167-.049.24 0l8.474 5.778-6.088 5.327-1.535-1.325a1.49 1.49 0 0 0-1.943-.004l-1.542 1.322-6.08-5.32L9.88 1.489zm3.601 11.947l5.242 4.527V8.85l-5.242 4.587zM1.277 8.85l5.23 4.577-5.23 4.483V8.85zm1.016 9.87h15.353l-7.509-6.485c-.08-.069-.198-.069-.278-.001L2.293 18.72z" fill="url(#A)"/><defs><radialGradient id="A" cx="0" cy="0" r="1" gradientUnits="userSpaceOnUse" gradientTransform="translate(10 17.1057) rotate(-123.193) scale(22.4521 31.244)"><stop stop-color="#e6fffc"/><stop offset="1" stop-color="#07beb8"/></radialGradient></defs></svg>