<svg width="512" height="512" viewBox="0 0 512 512" fill="none" xmlns="http://www.w3.org/2000/svg">
  <path d="M368.252 1.41c28.369 12.255 2.16 136.1-58.538 276.617-60.699 140.517-132.902 244.495-161.27 232.241-10.901-4.709-13.744-25.895-9.667-58.171.873 18.39 5.471 28.538 11.011 30.931 16.984 7.337 84.586-94.504 139.6-221.862 55.015-127.358 80.721-241.409 63.737-248.745-6.477-2.799-19.575 5.72-37.075 25.802 22.123-27.74 40.74-41.763 52.202-36.812Z" fill="url(#paint0_linear_368_240501)"/>
  <path d="M312.507 156.189C286.484 194.917 256 247.039 256 247.039s-69.5-118.277-88-130.826c-18.5-12.548-40-9.344-40-9.344V349.83s7.5 25.821 24 42.051 32 14.017 32 14.017V256.383l56.091 72.799c6.018-11.954 11.725-23.729 16.341-34.048 23.357-52.211 37.865-85.412 56.075-138.945Z" fill="url(#paint1_linear_368_240501)"/>
  <path d="M328 279.109v126.789s16 1.919 32.5-14.601S384 349.83 384 349.83V113.157c-3.023 12.021-6.385 23.429-10.333 36.831l-.008.026-.005.015c-1.558 5.291-3.209 10.892-4.966 16.965-13.423 46.388-25.669 78.074-40.688 112.115Z" fill="url(#paint2_linear_368_240501)"/>
  <path d="m0 256.456 74.828-71.8S83.5 182 91 182s20 .785 20 .785l-76.345 73.671L111 330s-12 2-20 2c-6.94 0-14.658-2-14.658-2L0 256.456Z" fill="url(#paint3_linear_368_240501)"/>
  <path d="m512 256.456-74.828-71.8S428.5 182 421 182s-20 .785-20 .785l76.345 73.671L401 330s12 2 20 2c6.94 0 14.658-2 14.658-2L512 256.456Z" fill="url(#paint4_linear_368_240501)"/>
  <defs>
    <linearGradient id="paint0_linear_368_240501" x1="-.441" y1="511.249" x2="517.139" y2="5.234" gradientUnits="userSpaceOnUse">
      <stop stop-color="#E4FFFC"/>
      <stop offset="0" stop-color="#07BEB8"/>
      <stop offset="1" stop-color="#E5FFFC"/>
    </linearGradient>
    <linearGradient id="paint1_linear_368_240501" x1="-.441" y1="511.249" x2="517.139" y2="5.234" gradientUnits="userSpaceOnUse">
      <stop stop-color="#E4FFFC"/>
      <stop offset="0" stop-color="#07BEB8"/>
      <stop offset="1" stop-color="#E5FFFC"/>
    </linearGradient>
    <linearGradient id="paint2_linear_368_240501" x1="-.441" y1="511.249" x2="517.139" y2="5.234" gradientUnits="userSpaceOnUse">
      <stop stop-color="#E4FFFC"/>
      <stop offset="0" stop-color="#07BEB8"/>
      <stop offset="1" stop-color="#E5FFFC"/>
    </linearGradient>
    <linearGradient id="paint3_linear_368_240501" x1="-.441" y1="511.249" x2="517.139" y2="5.234" gradientUnits="userSpaceOnUse">
      <stop stop-color="#E4FFFC"/>
      <stop offset="0" stop-color="#07BEB8"/>
      <stop offset="1" stop-color="#E5FFFC"/>
    </linearGradient>
    <linearGradient id="paint4_linear_368_240501" x1="-.441" y1="511.249" x2="517.139" y2="5.234" gradientUnits="userSpaceOnUse">
      <stop stop-color="#E4FFFC"/>
      <stop offset="0" stop-color="#07BEB8"/>
      <stop offset="1" stop-color="#E5FFFC"/>
    </linearGradient>
  </defs>
</svg>
