<svg width="512" height="512" viewBox="0 0 512 512" fill="none" xmlns="http://www.w3.org/2000/svg">
  <path d="M368.252 1.981c28.369 12.254 2.16 136.1-58.538 276.617-60.699 140.517-132.902 244.494-161.27 232.24-10.901-4.709-13.744-25.894-9.667-58.171.873 18.391 5.471 28.538 11.011 30.931 16.984 7.337 84.586-94.504 139.6-221.862 55.015-127.358 80.721-241.409 63.737-248.745-6.477-2.798-19.575 5.72-37.075 25.802 22.123-27.74 40.74-41.763 52.202-36.812Z" fill="url(#a)"/>
  <path d="M303.611 170.235C280.015 206.547 256 247.609 256 247.609s-69.5-118.277-88-130.825c-18.5-12.549-40-9.345-40-9.345V350.4s7.5 25.821 24 42.051 32 14.017 32 14.017V256.954l53.381 69.282c5.678-11.317 11.033-22.405 15.4-32.165 21.106-47.178 34.947-78.748 50.83-123.836Z" fill="url(#b)"/>
  <path d="M328 289.518v116.95s16 1.919 32.5-14.601S384 350.4 384 350.4V129.269c-1.997 7.151-4.147 14.447-6.5 22.434l-.003.009-.002.006-.004.014c-1.559 5.292-3.208 10.887-4.96 16.944-14.563 50.325-27.767 83.469-44.531 120.842Z" fill="url(#c)"/>
  <path d="m0 257.027 70.109-71.801s8.125-2.656 15.152-2.656c7.027 0 18.739.785 18.739.785l-71.53 73.672L104 330.57s-11.243 2-18.739 2c-6.502 0-13.733-2-13.733-2L0 257.027Z" fill="url(#d)"/>
  <path d="m512 257.027-70.109-71.801s-8.125-2.656-15.152-2.656c-7.027 0-18.739.785-18.739.785l71.53 73.672L408 330.57s11.243 2 18.739 2c6.502 0 13.733-2 13.733-2L512 257.027Z" fill="url(#e)"/>
  <defs>
    <linearGradient id="a" x1="-.441" y1="511.819" x2="517.139" y2="5.804" gradientUnits="userSpaceOnUse">
      <stop stop-color="#E4FFFC"/>
      <stop offset="0" stop-color="#07BEB8"/>
      <stop offset="1" stop-color="#E5FFFC"/>
    </linearGradient>
    <linearGradient id="b" x1="-.441" y1="511.819" x2="517.139" y2="5.804" gradientUnits="userSpaceOnUse">
      <stop stop-color="#E4FFFC"/>
      <stop offset="0" stop-color="#07BEB8"/>
      <stop offset="1" stop-color="#E5FFFC"/>
    </linearGradient>
    <linearGradient id="c" x1="-.441" y1="511.819" x2="517.139" y2="5.804" gradientUnits="userSpaceOnUse">
      <stop stop-color="#E4FFFC"/>
      <stop offset="0" stop-color="#07BEB8"/>
      <stop offset="1" stop-color="#E5FFFC"/>
    </linearGradient>
    <linearGradient id="d" x1="-.441" y1="511.819" x2="517.139" y2="5.804" gradientUnits="userSpaceOnUse">
      <stop stop-color="#E4FFFC"/>
      <stop offset="0" stop-color="#07BEB8"/>
      <stop offset="1" stop-color="#E5FFFC"/>
    </linearGradient>
    <linearGradient id="e" x1="-.441" y1="511.819" x2="517.139" y2="5.804" gradientUnits="userSpaceOnUse">
      <stop stop-color="#E4FFFC"/>
      <stop offset="0" stop-color="#07BEB8"/>
      <stop offset="1" stop-color="#E5FFFC"/>
    </linearGradient>
  </defs>
</svg>
