<svg 
    width="24" 
    height="24" 
    fill="none" 
    xmlns="http://www.w3.org/2000/svg">
    <g clip-path="url(#a)">
    <path 
        d="M8.002 24c2.208 0 4-1.792 4-4v-4h-4c-2.208 0-4 1.792-4 4s1.792 4 4 4z" 
        fill="#0ACF83"
    />
    <path 
        d="M4.002 12c0-2.208 1.792-4 4-4h4v8h-4c-2.208 0-4-1.792-4-4z" 
        fill="#A259FF"
    />
    <path 
        d="M4.002 4c0-2.208 1.792-4 4-4h4v8h-4c-2.208 0-4-1.792-4-4z" 
        fill="#F24E1E"
    />
    <path 
        d="M12.002 0h4c2.208 0 4 1.792 4 4s-1.792 4-4 4h-4V0z" 
        fill="#FF7262"
    />
    <path 
        d="M20.002 12c0 2.208-1.792 4-4 4s-4-1.792-4-4 1.792-4 4-4 4 1.792 4 4z" 
        fill="#1ABCFE"
    />
    </g><defs><clipPath id="a"><path fill="#fff" d="M0 0h24v24H0z"/></clipPath></defs>
</svg>