<svg xmlns="http://www.w3.org/2000/svg" width="20" height="20" fill="none" xmlns:v="https://vecta.io/nano"><path d="M17.041 17.041h-2.963V12.4c0-1.107-.02-2.531-1.541-2.531-1.543 0-1.78 1.206-1.78 2.451v4.721H7.794V7.497h2.845v1.304h.04a3.12 3.12 0 0 1 2.807-1.542c3.004 0 3.557 1.976 3.557 4.546l-.001 5.235zM4.45 6.193a1.73 1.73 0 0 1-1.72-1.72 1.73 1.73 0 0 1 1.72-1.72 1.73 1.73 0 0 1 1.72 1.719 1.73 1.73 0 0 1-1.719 1.72zm1.482 10.848H2.965V7.497h2.966v9.544zM18.519.001H1.476C.676-.008.01.643 0 1.443v17.114A1.47 1.47 0 0 0 1.476 20h17.043A1.47 1.47 0 0 0 20 18.557V1.442A1.47 1.47 0 0 0 18.519 0v.001z" fill="#0a66c2"/></svg>