<svg width="16" 
    height="16" 
    fill="none" 
    xmlns="http://www.w3.org/2000/svg"
    >
    <path 
        d="M13.633 13.633h-2.37V9.92c0-.885-.017-2.025-1.234-2.025-1.235 0-1.423.965-1.423 1.96v3.778H6.235V5.998H8.51V7.04h.032a2.497 2.497 0 0 1 2.245-1.233c2.403 0 2.846 1.58 2.846 3.637l-.001 4.188zM3.56 4.954a1.383 1.383 0 0 1-1.376-1.376c0-.754.62-1.375 1.376-1.375.754 0 1.375.62 1.375 1.375s-.62 1.376-1.375 1.376zm1.185 8.679H2.372V5.998h2.373v7.635zM14.815 0H1.18A1.173 1.173 0 0 0 0 1.154v13.691c.008.64.54 1.161 1.18 1.155h13.635A1.176 1.176 0 0 0 16 14.845V1.153A1.175 1.175 0 0 0 14.815 0v.001z" 
        fill="#0A66C2"
    />
</svg>