<svg width="24" height="24" fill="none" xmlns="http://www.w3.org/2000/svg">
    <path d="m17.739 22.117-.25-.433.25.433zm-9.535-7.749.433-.25-.433.25zM6.261 2.236l-.25-.433.25.433zm9.534 7.75.433-.25-.433.25zM6.261 22.116l-.25.433.25-.433zM8.204 9.985l-.433-.25.433.25zm9.535-7.749-.25.433.25-.433zm-1.944 12.132-.433-.25.433.25zm-2.156-2.191a1.64 1.64 0 0 1-1.64 1.639v1a2.64 2.64 0 0 0 2.64-2.64h-1zm-1.64 1.639a1.64 1.64 0 0 1-1.638-1.64h-1A2.64 2.64 0 0 0 12 14.817v-1zm-1.638-1.64c0-.905.733-1.639 1.639-1.639v-1a2.64 2.64 0 0 0-2.64 2.64h1zM12 10.538c.905 0 1.639.734 1.639 1.64h1a2.64 2.64 0 0 0-2.64-2.64v1zm10.978 1.64c0 .414-.218.866-.737 1.334-.519.469-1.298.914-2.303 1.298-2.007.766-4.814 1.25-7.938 1.25v1c3.214 0 6.147-.496 8.294-1.316 1.072-.41 1.974-.91 2.617-1.49s1.067-1.28 1.067-2.076h-1zM12 16.059c-3.125 0-5.931-.484-7.938-1.25-1.005-.384-1.784-.83-2.303-1.298-.52-.468-.738-.92-.738-1.334h-1c0 .796.425 1.497 1.067 2.077.643.58 1.545 1.08 2.617 1.489 2.147.82 5.08 1.316 8.295 1.316v-1zM1.02 12.177c0-.415.219-.867.738-1.335.519-.469 1.298-.913 2.303-1.297 2.007-.767 4.813-1.25 7.938-1.25v-1c-3.215 0-6.148.496-8.295 1.316-1.072.409-1.974.908-2.617 1.489-.642.58-1.067 1.28-1.067 2.077h1zM12 8.294c3.124 0 5.93.484 7.938 1.25 1.005.385 1.784.83 2.303 1.298.519.468.737.92.737 1.335h1c0-.796-.424-1.497-1.067-2.077-.643-.58-1.545-1.08-2.617-1.49-2.147-.82-5.08-1.316-8.294-1.316v1zm5.489 13.39c-.359.207-.86.244-1.525.03-.665-.216-1.44-.668-2.274-1.347-1.668-1.355-3.49-3.543-5.053-6.249l-.866.5c1.608 2.784 3.504 5.075 5.288 6.525.89.724 1.774 1.255 2.598 1.522.823.266 1.643.283 2.332-.115l-.5-.866zm-8.852-7.566c-1.562-2.706-2.546-5.379-2.886-7.5-.17-1.062-.174-1.96-.028-2.643.146-.684.429-1.099.788-1.306l-.5-.866c-.69.398-1.085 1.116-1.266 1.963-.18.846-.162 1.877.02 3.01.363 2.27 1.399 5.058 3.006 7.842l.866-.5zM6.511 2.669c.358-.207.859-.244 1.524-.029s1.44.668 2.275 1.346c1.667 1.355 3.49 3.543 5.052 6.25l.866-.5C14.621 6.95 12.724 4.66 10.941 3.21c-.89-.724-1.774-1.255-2.598-1.521-.824-.267-1.643-.284-2.332.114l.5.866zm8.851 7.566c1.562 2.706 2.546 5.379 2.886 7.5.17 1.063.174 1.96.028 2.643-.146.684-.428 1.099-.787 1.306l.5.866c.69-.398 1.084-1.116 1.265-1.962.181-.847.163-1.878-.019-3.011-.363-2.27-1.4-5.058-3.007-7.842l-.866.5zm-8.851 11.45c-.36-.208-.642-.623-.788-1.307-.146-.683-.142-1.58.028-2.643.34-2.121 1.324-4.794 2.886-7.5l-.866-.5c-1.607 2.784-2.643 5.572-3.007 7.842-.181 1.133-.2 2.164-.019 3.01.181.847.576 1.565 1.266 1.963l.5-.866zm2.126-11.45C10.2 7.53 12.022 5.341 13.69 3.986c.835-.678 1.61-1.13 2.274-1.346.666-.215 1.166-.178 1.525.03l.5-.867c-.69-.398-1.509-.38-2.332-.114-.824.266-1.708.797-2.598 1.521-1.784 1.45-3.68 3.741-5.288 6.525l.866.5zM17.49 2.67c.359.207.641.622.787 1.306.146.684.142 1.58-.028 2.643-.34 2.121-1.324 4.794-2.886 7.5l.866.5c1.607-2.784 2.644-5.572 3.007-7.842.182-1.133.2-2.164.02-3.01-.182-.847-.577-1.565-1.266-1.963l-.5.866zm-2.127 11.449c-1.562 2.706-3.385 4.894-5.052 6.25-.835.678-1.61 1.13-2.275 1.345-.665.215-1.166.178-1.524-.029l-.5.866c.689.398 1.508.381 2.332.115.824-.267 1.707-.798 2.598-1.522 1.783-1.45 3.68-3.741 5.287-6.525l-.866-.5z" fill="#61DAFB"/>
</svg>