<svg xmlns="http://www.w3.org/2000/svg" width="20" height="20" fill="none" xmlns:v="https://vecta.io/nano"><g fill-rule="evenodd"><path d="M4.584 1.458c0-.115.093-.208.208-.208H10c.23 0 .417.187.417.417v6.042a1.46 1.46 0 0 0 1.458 1.458h6.042c.23 0 .417.187.417.417v8.871c0 .115-.093.208-.208.208h-7.708a6.28 6.28 0 0 1-1.095 1.25h8.802a1.46 1.46 0 0 0 1.458-1.458V8.47a1.46 1.46 0 0 0-.427-1.031L12.145.427A1.46 1.46 0 0 0 11.113 0H4.792a1.46 1.46 0 0 0-1.458 1.458v7.5c0 .098.034.188.09.259.373-.111.76-.188 1.159-.228l.001-.031v-7.5zM16.86 7.917a.42.42 0 0 0 .295-.711l-4.777-4.777a.42.42 0 0 0-.711.295v4.985c0 .115.093.208.208.208h4.985z" fill="url(#A)"/><path d="M10.209 15a5 5 0 1 1-10 0 5 5 0 1 1 10 0zm-3.542-1.875a1.46 1.46 0 0 1-1.458 1.458 1.46 1.46 0 0 1-1.458-1.458 1.46 1.46 0 0 1 1.458-1.458 1.46 1.46 0 0 1 1.458 1.458zm-1.458 2.083c1.681 0 2.548 1.763 2.82 2.444.052.13-.046.264-.186.264H2.574c-.14 0-.238-.134-.186-.264.272-.681 1.14-2.444 2.82-2.444z" fill="url(#A)"/></g><defs><radialGradient id="A" cx="0" cy="0" r="1" gradientUnits="userSpaceOnUse" gradientTransform="translate(9.896 17.0833) rotate(-122.133) scale(22.3877 30.6289)"><stop stop-color="#e6fffc"/><stop offset="1" stop-color="#07beb8"/></radialGradient></defs></svg>