<svg 
    width="16" 
    height="16" 
    fill="none" 
    xmlns="http://www.w3.org/2000/svg">
        <path 
            fill-rule="evenodd" 
            clip-rule="evenodd" 
            d="M3.667 1.167c0-.092.074-.167.166-.167H8c.184 0 .333.15.333.333v4.834c0 .644.523 1.166 1.167 1.166h4.833c.184 0 .333.15.333.334v7.097a.167.167 0 0 1-.166.167H8.334a5.025 5.025 0 0 1-.876 1H14.5c.644 0 1.166-.523 1.166-1.167V6.776c0-.31-.122-.606-.341-.825L9.715.341A1.167 1.167 0 0 0 8.89 0H3.833C3.19 0 2.666.522 2.666 1.167v6c0 .078.027.15.072.207.299-.09.609-.15.928-.183V1.167zm9.821 5.166a.333.333 0 0 0 .236-.569L9.902 1.943a.333.333 0 0 0-.569.236v3.988c0 .092.075.166.167.166h3.988z" 
            fill="url(#a)"
        />
        <path 
            fill-rule="evenodd" 
            clip-rule="evenodd" 
            d="M8.166 12a4 4 0 1 1-8 0 4 4 0 0 1 8 0zm-2.833-1.5A1.167 1.167 0 1 1 3 10.5a1.167 1.167 0 0 1 2.333 0zm-1.167 1.667c1.345 0 2.039 1.41 2.257 1.955.041.104-.037.211-.149.211H2.06c-.112 0-.19-.107-.149-.211.218-.545.912-1.955 2.257-1.955z" 
            fill="url(#b)"
        />
        <defs>
            <radialGradient 
                id="a" 
                cx="0" 
                cy="0" 
                r="1" 
                gradientUnits="userSpaceOnUse" 
                gradientTransform="rotate(-122.133 7.736 4.645) scale(17.9101 24.5031)">
                    <stop stop-color="#E6FFFC"/>
                    <stop offset="1" stop-color="#07BEB8"/>
            </radialGradient>
            <radialGradient 
                id="b" 
                cx="0" 
                cy="0" 
                r="1" 
                gradientUnits="userSpaceOnUse" 
                gradientTransform="rotate(-122.133 7.736 4.645) scale(17.9101 24.5031)">
                    <stop stop-color="#E6FFFC"/>
                    <stop offset="1" stop-color="#07BEB8"/>
            </radialGradient>
        </defs>
</svg>