<svg 
    width="24" 
    height="24" 
    fill="none" 
    xmlns="http://www.w3.org/2000/svg"
    >
    <path d="M5.226 1.714 11.976 1l6.75.714 5.226 7.015-11.976 13.945L0 8.73l5.226-7.015z" fill="#FDB300"/>
    <path d="m4.85 8.729 7.126 13.945L0 8.73h4.85zM19.1 8.729l-7.124 13.945L23.952 8.73H19.1z" fill="#EA6C00"/>
    <path d="M4.85 8.729H19.1l-7.124 13.945L4.85 8.73z" fill="#FDAD00"/>
    <path d="m11.976 1-6.75.714-.375 7.015L11.976 1zM11.976 1l6.75.714.375 7.015L11.976 1z" fill="#FDD231"/>
    <path d="m23.952 8.729-5.226-7.015.375 7.015h4.85zM0 8.729l5.226-7.015-.375 7.015H0z" fill="#FDAD00"/>
    <path d="M11.976 1 4.85 8.729H19.1L11.976 1z" fill="#FEEEB7"/>
</svg>