<svg width="24" height="24" fill="none" xmlns="http://www.w3.org/2000/svg">
    <path d="m2.744 22.115-.743-19.81a1.207 1.207 0 0 1 1.13-1.25L19.981.003a1.207 1.207 0 0 1 1.282 1.205v21.586A1.207 1.207 0 0 1 20.003 24l-16.107-.724a1.207 1.207 0 0 1-1.152-1.16z" fill="#fff"/>
    <path d="m2.744 22.115-.743-19.81a1.207 1.207 0 0 1 1.13-1.25L19.981.003a1.207 1.207 0 0 1 1.282 1.205v21.586A1.207 1.207 0 0 1 20.003 24l-16.107-.724a1.207 1.207 0 0 1-1.152-1.16z" fill="#FF4785"/>
    <path d="M16.224 2.95 16.34.182 18.654 0l.1 2.855a.18.18 0 0 1-.292.147L17.57 2.3l-1.057.802a.18.18 0 0 1-.289-.151zM13.265 9.046c0 .47 3.162.244 3.587-.085 0-3.197-1.716-4.877-4.857-4.877-3.14 0-4.9 1.706-4.9 4.265 0 4.457 6.014 4.542 6.014 6.973 0 .683-.334 1.088-1.07 1.088-.957 0-1.336-.49-1.291-2.152 0-.361-3.654-.474-3.765 0-.284 4.03 2.228 5.193 5.101 5.193 2.785 0 4.968-1.484 4.968-4.171 0-4.777-6.104-4.65-6.104-7.016 0-.96.713-1.088 1.136-1.088.446 0 1.248.079 1.181 1.87z" fill="#fff"/>
</svg>