<svg width="24" height="24" fill="none" xmlns="http://www.w3.org/2000/svg">
  <path fill-rule="evenodd" clip-rule="evenodd" d="M6 9.6c.8-3.2 2.8-4.8 6-4.8 4.8 0 5.4 3.6 7.8 4.2 1.6.4 3-.2 4.2-1.8-.8 3.2-2.8 4.8-6 4.8-4.8 0-5.4-3.6-7.8-4.2-1.6-.4-3 .2-4.2 1.8Zm-6 7.2C.8 13.6 2.8 12 6 12c4.8 0 5.4 3.6 7.8 4.2 1.6.4 3-.2 4.2-1.8-.8 3.2-2.8 4.8-6 4.8-4.8 0-5.4-3.6-7.8-4.2-1.6-.4-3 .2-4.2 1.8Z" fill="url(#paint0_linear_365_240389)"/>
  <defs>
    <linearGradient id="paint0_linear_365_240389" x1="0" y1="-8" x2="24" y2="32" gradientUnits="userSpaceOnUse">
      <stop stop-color="#2383AE"/>
      <stop offset="1" stop-color="#6DD7B9"/>
    </linearGradient>
  </defs>
</svg>