<svg width="24" height="24" fill="none" xmlns="http://www.w3.org/2000/svg">
    <path fill-rule="evenodd" clip-rule="evenodd" d="M0 2a2 2 0 0 1 2-2h20a2 2 0 0 1 2 2v20a2 2 0 0 1-2 2H2a2 2 0 0 1-2-2V2zm16.578 14.978-3.024.605c-.26.052-.26.423 0 .475l3.024.604a.969.969 0 0 1 .76.76l.604 3.024c.052.26.423.26.475 0l.605-3.024a.969.969 0 0 1 .76-.76l3.023-.604c.26-.052.26-.423 0-.475l-3.023-.605a.969.969 0 0 1-.76-.76l-.605-3.023c-.052-.26-.423-.26-.475 0l-.604 3.023a.969.969 0 0 1-.76.76zm-7.383 3.027 1.005-.201a.969.969 0 0 0 .76-.76l.2-1.005c.053-.26.424-.26.476 0l.2 1.005a.969.969 0 0 0 .76.76l1.005.2c.26.053.26.424 0 .476l-1.004.2a.969.969 0 0 0-.76.76l-.201 1.006c-.052.26-.423.26-.475 0l-.201-1.005a.969.969 0 0 0-.76-.76l-1.005-.201c-.26-.052-.26-.423 0-.475zM1.5 9.5c0-4.408 3.592-8 8-8 4.408 0 8 3.232 8 7.2 0 2.648-2.152 4.8-4.8 4.8h-1.416c-.224 0-.4.176-.4.4 0 .096.04.184.104.264.328.376.512.848.512 1.336a2 2 0 0 1-2 2c-4.408 0-8-3.592-8-8zm11.2-.4c0 .664.536 1.2 1.2 1.2.664 0 1.2-.536 1.2-1.2 0-.664-.536-1.2-1.2-1.2-.664 0-1.2.536-1.2 1.2zm-2.4-3.2c0 .664.536 1.2 1.2 1.2.664 0 1.2-.536 1.2-1.2 0-.664-.536-1.2-1.2-1.2-.664 0-1.2.536-1.2 1.2zm-5.2 2c-.664 0-1.2.536-1.2 1.2 0 .664.536 1.2 1.2 1.2.664 0 1.2-.536 1.2-1.2 0-.664-.536-1.2-1.2-1.2zm2.4-.8c.664 0 1.2-.536 1.2-1.2 0-.664-.536-1.2-1.2-1.2-.664 0-1.2.536-1.2 1.2 0 .664.536 1.2 1.2 1.2z" fill="url(#a)"/><defs><linearGradient id="a" x1="26.75" y1="43.25" x2="-2.75" y2="-2.25" gradientUnits="userSpaceOnUse"><stop offset=".422" stop-color="#E4FFFC"/><stop offset="1" stop-color="#07BEB8"/></linearGradient></defs>
</svg>