<svg xmlns="http://www.w3.org/2000/svg" width="24" height="24" fill="none" xmlns:v="https://vecta.io/nano"><path d="M12.7 9.1a1.2 1.2 0 1 0 2.4 0 1.2 1.2 0 1 0-2.4 0z" fill="url(#A)"/><path d="M10.3 5.9a1.2 1.2 0 0 0 2.4 0 1.2 1.2 0 0 0-2.4 0z" fill="url(#A)"/><path d="M5.1 7.9a1.2 1.2 0 1 0 0 2.4 1.2 1.2 0 1 0 0-2.4z" fill="url(#A)"/><path d="M7.5 7.1a1.2 1.2 0 0 0 0-2.4 1.2 1.2 0 0 0 0 2.4z" fill="url(#A)"/><path fill-rule="evenodd" d="M0 2a2 2 0 0 1 2-2h20a2 2 0 0 1 2 2v20a2 2 0 0 1-2 2H2a2 2 0 0 1-2-2V2zm16.578 14.978l-3.023.605c-.26.052-.26.423 0 .475l3.023.605a.97.97 0 0 1 .76.76l.605 3.023c.052.26.423.26.475 0l.605-3.023a.97.97 0 0 1 .76-.76l3.023-.605c.26-.052.26-.423 0-.475l-3.023-.605a.97.97 0 0 1-.76-.76l-.605-3.023c-.052-.26-.423-.26-.475 0l-.605 3.023a.97.97 0 0 1-.76.76zm-7.383 3.027l1.005-.201a.97.97 0 0 0 .76-.76l.201-1.005c.052-.26.423-.26.475 0l.201 1.005a.97.97 0 0 0 .76.76l1.005.201c.26.052.26.423 0 .475l-1.005.201a.97.97 0 0 0-.76.76l-.201 1.005c-.052.26-.423.26-.475 0l-.201-1.005a.97.97 0 0 0-.76-.76l-1.005-.201c-.26-.052-.26-.423 0-.475zM1.5 9.5c0-4.408 3.592-8 8-8s8 3.232 8 7.2c0 2.648-2.152 4.8-4.8 4.8h-1.416c-.224 0-.4.176-.4.4 0 .096.04.184.104.264.328.376.512.848.512 1.336a2 2 0 0 1-2 2c-4.408 0-8-3.592-8-8z" fill="url(#A)"/><defs><radialGradient id="A" cx="0" cy="0" r="1" gradientUnits="userSpaceOnUse" gradientTransform="translate(12 20.5) rotate(-122.957) scale(27.1132 37.5933)"><stop stop-color="#e6fffc"/><stop offset="1" stop-color="#07beb8"/></radialGradient></defs></svg>