<svg xmlns="http://www.w3.org/2000/svg" width="20" height="20" fill="none" xmlns:v="https://vecta.io/nano"><path fill-rule="evenodd" d="M2.245 1.042C1.005 1.042 0 2.047 0 3.287v11.837c0 1.24 1.005 2.245 2.245 2.245h15.51c1.24 0 2.245-1.005 2.245-2.245V4.919c0-1.24-1.005-2.245-2.245-2.245H8.769a1.02 1.02 0 0 1-.549-.16L6.464 1.394c-.361-.23-.779-.352-1.207-.352H2.245zm-1.02 2.245a1.02 1.02 0 0 1 1.02-1.02h3.012a1.02 1.02 0 0 1 .549.16l1.757 1.121c.361.23.779.352 1.207.352h8.986a1.02 1.02 0 0 1 1.02 1.02v1.837H1.224V3.287zm0 4.694v7.143a1.02 1.02 0 0 0 1.02 1.02h15.51a1.02 1.02 0 0 0 1.02-1.02V7.98H1.224z" fill="url(#A)"/><defs><radialGradient id="A" cx="0" cy="0" r="1" gradientUnits="userSpaceOnUse" gradientTransform="translate(10 14.9872) rotate(-128.458) scale(19.7635 29.2366)"><stop stop-color="#e6fffc"/><stop offset="1" stop-color="#07beb8"/></radialGradient></defs></svg>